<svg xmlns="http://www.w3.org/2000/svg" width="2340" height="2505" viewBox="0 0 2340 2505"><rect width="100%" height="100%" fill="#DDDDDD"/><path fill="#999999" d="M542.8 1313.38h45.82q4.94 0 7.84 2.78 2.91 2.78 2.91 7.35v18.28H476.86v-10.13q0-3.08 1.29-6.48 1.3-3.4 4.14-6.11l54.22-54.34q6.79-6.92 12.16-13.22 5.37-6.3 8.95-12.47 3.59-6.18 5.5-12.54 1.91-6.36 1.91-13.4 0-6.42-1.85-11.3-1.85-4.88-5.25-8.21-3.39-3.33-8.15-5-4.75-1.67-10.68-1.67-5.43 0-10.07 1.54-4.63 1.55-8.21 4.33-3.58 2.78-6.05 6.48-2.47 3.71-3.71 8.15-2.09 5.68-5.43 7.54-3.33 1.85-9.63.86l-16.06-2.84q1.86-12.84 7.17-22.54 5.31-9.69 13.27-16.18 7.97-6.48 18.28-9.75 10.31-3.28 22.17-3.28 12.35 0 22.6 3.65 10.25 3.64 17.54 10.31 7.28 6.67 11.36 16.05 4.07 9.39 4.07 20.87 0 9.88-2.9 18.28t-7.78 16.06q-4.88 7.65-11.42 14.82-6.55 7.16-13.71 14.57l-40.26 41.13q5.8-1.73 11.54-2.66 5.75-.93 10.93-.93Zm97.32-97.56-16.05-2.84q1.85-12.84 7.16-22.54 5.31-9.69 13.28-16.18 7.96-6.48 18.27-9.75 10.32-3.28 22.17-3.28 12.35 0 22.29 3.52 9.95 3.52 16.99 9.76 7.04 6.24 10.8 14.63 3.77 8.4 3.77 18.16 0 8.52-1.92 15-1.91 6.49-5.49 11.3-3.58 4.82-8.89 8.16-5.31 3.33-11.98 5.55 16.05 5.07 23.96 15.44 7.9 10.37 7.9 26.06 0 13.34-4.94 23.59t-13.34 17.23q-8.4 6.97-19.45 10.55-11.05 3.59-23.4 3.59-13.46 0-23.47-3.09-10-3.09-17.41-9.14-7.41-6.05-12.6-14.82-5.18-8.77-8.89-20.25l13.46-5.56q5.31-2.22 9.94-1.18 4.63 1.05 6.73 5.01 2.23 4.32 4.88 8.52 2.66 4.2 6.36 7.47 3.71 3.27 8.71 5.31 5 2.04 11.92 2.04 7.78 0 13.58-2.53 5.81-2.54 9.7-6.61 3.89-4.08 5.8-9.08 1.92-5 1.92-10.06 0-6.43-1.36-11.67-1.36-5.25-5.68-8.96-4.33-3.7-12.42-5.8-8.08-2.1-21.67-2.1v-21.74q11.24-.12 18.65-2.1 7.41-1.97 11.79-5.49 4.39-3.52 6.12-8.46 1.73-4.94 1.73-10.87 0-12.6-7.04-19.14-7.04-6.55-18.78-6.55-5.43 0-10 1.54-4.57 1.55-8.21 4.33-3.65 2.78-6.12 6.48-2.47 3.71-3.7 8.15-2.1 5.68-5.5 7.54-3.39 1.85-9.57.86Zm147.46 58.66h54.34v-58.41q0-8.28 1.11-18.28l-55.45 76.69Zm80.89 0h22.48v17.66q0 2.47-1.6 4.26-1.61 1.79-4.57 1.79h-16.31v43.6h-26.55v-43.6h-75.33q-3.09 0-5.44-1.91-2.34-1.91-2.96-4.75l-3.21-15.44 84.59-113h28.9v111.39Zm165.86-21.98q0 23.34-5 40.57t-13.83 28.47q-8.83 11.23-20.87 16.73-12.04 5.5-26 5.5-13.95 0-25.87-5.5-11.92-5.5-20.69-16.73-8.77-11.24-13.71-28.47-4.94-17.23-4.94-40.57 0-23.47 4.94-40.63 4.94-17.17 13.71-28.41 8.77-11.24 20.69-16.73 11.92-5.5 25.87-5.5 13.96 0 26 5.5 12.04 5.49 20.87 16.73 8.83 11.24 13.83 28.41 5 17.16 5 40.63Zm-31.49 0q0-19.39-2.84-32.11-2.84-12.72-7.59-20.25-4.76-7.54-10.93-10.56-6.18-3.03-12.85-3.03-6.54 0-12.66 3.03-6.11 3.02-10.8 10.56-4.7 7.53-7.47 20.25-2.78 12.72-2.78 32.11t2.78 32.11q2.77 12.72 7.47 20.25 4.69 7.54 10.8 10.56 6.12 3.03 12.66 3.03 6.67 0 12.85-3.03 6.17-3.02 10.93-10.56 4.75-7.53 7.59-20.25 2.84-12.72 2.84-32.11Zm227.61 48.41-16.18 15.93-41.86-41.86-42.24 42.11-16.18-15.93 42.24-42.36-40.26-40.26 16.05-16.06 40.26 40.26 40.02-40.01 16.3 16.05-40.14 40.14 41.99 41.99Zm148.7 12.47h45.81q4.94 0 7.85 2.78 2.9 2.78 2.9 7.35v18.28H1313.2v-10.13q0-3.08 1.29-6.48 1.3-3.4 4.14-6.11l54.22-54.34q6.79-6.92 12.16-13.22 5.37-6.3 8.96-12.47 3.58-6.18 5.49-12.54 1.92-6.36 1.92-13.4 0-6.42-1.86-11.3-1.85-4.88-5.25-8.21-3.39-3.33-8.15-5-4.75-1.67-10.68-1.67-5.43 0-10.06 1.54-4.64 1.55-8.22 4.33-3.58 2.78-6.05 6.48-2.47 3.71-3.7 8.15-2.1 5.68-5.44 7.54-3.33 1.85-9.63.86l-16.06-2.84q1.86-12.84 7.17-22.54 5.31-9.69 13.27-16.18 7.97-6.48 18.28-9.75 10.31-3.28 22.17-3.28 12.35 0 22.6 3.65 10.25 3.64 17.54 10.31 7.28 6.67 11.36 16.05 4.08 9.39 4.08 20.87 0 9.88-2.91 18.28-2.9 8.4-7.78 16.06-4.88 7.65-11.42 14.82-6.55 7.16-13.71 14.57l-40.26 41.13q5.8-1.73 11.55-2.66 5.74-.93 10.93-.93Zm124.36-122.51-6.3 37.18q5.93-1.24 11.36-1.79 5.44-.56 10.5-.56 14.08 0 24.83 4.2 10.74 4.2 18.03 11.61 7.28 7.41 10.99 17.35 3.7 9.94 3.7 21.43 0 14.2-5 25.93t-13.89 20.07q-8.89 8.34-21.06 12.91-12.16 4.57-26.49 4.57-8.4 0-15.93-1.73-7.54-1.73-14.14-4.63-6.61-2.91-12.23-6.67-5.62-3.77-10.06-7.97l9.38-12.97q2.97-4.2 7.78-4.2 3.09 0 6.3 1.98t7.35 4.32q4.14 2.35 9.76 4.33 5.61 1.97 13.52 1.97 8.4 0 14.82-2.72 6.42-2.71 10.68-7.59t6.42-11.61q2.16-6.73 2.16-14.63 0-14.58-8.46-22.79-8.45-8.21-25-8.21-12.72 0-26.06 4.69l-19.02-5.43 14.82-86.7h88.18v12.97q0 6.54-4.08 10.62-4.07 4.07-13.83 4.07h-49.03Zm223.91 61.63q0 23.34-5.01 40.57-5 17.23-13.83 28.47-8.83 11.23-20.87 16.73-12.04 5.5-26 5.5-13.95 0-25.87-5.5-11.92-5.5-20.69-16.73-8.76-11.24-13.7-28.47-4.94-17.23-4.94-40.57 0-23.47 4.94-40.63 4.94-17.17 13.7-28.41 8.77-11.24 20.69-16.73 11.92-5.5 25.87-5.5 13.96 0 26 5.5 12.04 5.49 20.87 16.73 8.83 11.24 13.83 28.41 5.01 17.16 5.01 40.63Zm-31.5 0q0-19.39-2.84-32.11-2.84-12.72-7.59-20.25-4.76-7.54-10.93-10.56-6.18-3.03-12.85-3.03-6.54 0-12.65 3.03-6.12 3.02-10.81 10.56-4.69 7.53-7.47 20.25-2.78 12.72-2.78 32.11t2.78 32.11q2.78 12.72 7.47 20.25 4.69 7.54 10.81 10.56 6.11 3.03 12.65 3.03 6.67 0 12.85-3.03 6.17-3.02 10.93-10.56 4.75-7.53 7.59-20.25 2.84-12.72 2.84-32.11Zm94.11-61.63-6.3 37.18q5.93-1.24 11.36-1.79 5.44-.56 10.5-.56 14.08 0 24.82 4.2 10.75 4.2 18.04 11.61 7.28 7.41 10.99 17.35 3.7 9.94 3.7 21.43 0 14.2-5 25.93t-13.89 20.07q-8.89 8.34-21.06 12.91-12.16 4.57-26.49 4.57-8.4 0-15.93-1.73-7.54-1.73-14.14-4.63-6.61-2.91-12.23-6.67-5.62-3.77-10.06-7.97l9.38-12.97q2.97-4.2 7.78-4.2 3.09 0 6.3 1.98t7.35 4.32q4.14 2.35 9.76 4.33 5.61 1.97 13.52 1.97 8.4 0 14.82-2.72 6.42-2.71 10.68-7.59t6.42-11.61q2.16-6.73 2.16-14.63 0-14.58-8.46-22.79-8.45-8.21-25-8.21-12.72 0-26.06 4.69l-19.02-5.43 14.82-86.7h88.18v12.97q0 6.54-4.08 10.62-4.07 4.07-13.83 4.07h-49.03Z"/></svg>